<svg width="32" height="32" viewBox="0 0 32 32" fill="none" xmlns="http://www.w3.org/2000/svg">
<g clip-path="url(#clip0_4_602)">
<path d="M12.2 23.16L13.1867 19.2533" stroke="#6C7CFF" stroke-width="1.5" stroke-linecap="round" stroke-linejoin="round"/>
<path d="M18.8133 19.2533L19.7867 23.1733" stroke="#6C7CFF" stroke-width="1.5" stroke-linecap="round" stroke-linejoin="round"/>
<path d="M10.0533 6.70667C10.4223 5.53776 11.1533 4.51641 12.1407 3.7902C13.1282 3.06399 14.3209 2.67053 15.5467 2.66667H16.4533C17.6791 2.67053 18.8719 3.06399 19.8593 3.7902C20.8468 4.51641 21.5778 5.53776 21.9467 6.70667" stroke="#6C7CFF" stroke-width="1.5" stroke-linecap="round" stroke-linejoin="round"/>
<path d="M21.7467 14.64V14.68C21.6349 16.1275 20.981 17.4795 19.9156 18.4658C18.8502 19.4521 17.4518 20 16 20C14.5482 20 13.1498 19.4521 12.0844 18.4658C11.019 17.4795 10.3651 16.1275 10.2533 14.68V14.64" stroke="#6C7CFF" stroke-width="1.5" stroke-linecap="round" stroke-linejoin="round"/>
<path d="M21.5172 14.6667H10.4828C9.83698 14.6718 9.215 14.4231 8.75067 13.9743C8.28635 13.5255 8.01679 12.9123 8 12.2667V9.06667C8.01679 8.42109 8.28635 7.80789 8.75067 7.35905C9.215 6.9102 9.83698 6.66157 10.4828 6.66667H21.5925C22.2265 6.67704 22.8317 6.93299 23.2808 7.38064C23.7298 7.8283 23.9877 8.43272 24 9.06667V12.3394C23.9676 12.9731 23.6908 13.5697 23.2279 14.0036C22.7649 14.4376 22.1518 14.6753 21.5172 14.6667Z" stroke="#6C7CFF" stroke-width="1.5" stroke-linecap="round" stroke-linejoin="round"/>
<path d="M13.3333 10H18.6667" stroke="#6C7CFF" stroke-width="1.5" stroke-linecap="round" stroke-linejoin="round"/>
<path d="M4 28V27.488C3.99994 26.5632 4.32035 25.6669 4.9067 24.9517C5.49305 24.2365 6.30911 23.7466 7.216 23.5653L11.5 22.708L11.916 22.9853C13.1253 23.7919 14.5464 24.2224 16 24.2224C17.4536 24.2224 18.8747 23.7919 20.084 22.9853L20.5 22.708L24.784 23.5653C25.6909 23.7466 26.5069 24.2365 27.0933 24.9517C27.6796 25.6669 28.0001 26.5632 28 27.488V28" stroke="#6C7CFF" stroke-width="1.5" stroke-linecap="round" stroke-linejoin="round"/>
</g>
<defs>
<clipPath id="clip0_4_602">
<rect width="32" height="32" fill="white"/>
</clipPath>
</defs>
</svg>
