<svg width="20" height="20" viewBox="0 0 20 20" fill="none" xmlns="http://www.w3.org/2000/svg">
<path d="M9.99999 1.66666C5.40832 1.66666 1.66666 5.40832 1.66666 9.99999C1.66666 14.5917 5.40832 18.3333 9.99999 18.3333C14.5917 18.3333 18.3333 14.5917 18.3333 9.99999C18.3333 5.40832 14.5917 1.66666 9.99999 1.66666ZM13.625 12.975C13.5083 13.175 13.3 13.2833 13.0833 13.2833C12.975 13.2833 12.8667 13.2583 12.7667 13.1917L10.1833 11.65C9.54166 11.2667 9.06666 10.425 9.06666 9.68332V6.26666C9.06666 5.92499 9.34999 5.64166 9.69166 5.64166C10.0333 5.64166 10.3167 5.92499 10.3167 6.26666V9.68332C10.3167 9.98332 10.5667 10.425 10.825 10.575L13.4083 12.1167C13.7083 12.2917 13.8083 12.675 13.625 12.975Z" fill="#9293B9"/>
</svg>
